{"asset":{"version":"2.0","generator":"VECTARY"},"nodes":[{"translation":[0,0.22904535230941833,4.263256414560601e-17],"scale":[0.001,0.001,0.001],"rotation":[0,-0.7071067811865475,0,0.7071067811865476],"name":"Point Light","extensions":{"KHR_lights_punctual":{"light":0}}},{"translation":[0,0,0],"scale":[0.001,0.001,0.001],"rotation":[-0.7071067811865475,0,0,0.7071067811865476],"name":"mtl-logo-01 - baked","children":[2]},{"translation":[0,0,0],"scale":[1,1,1],"rotation":[0.6819983600624984,0,0,0.7313537016191706],"name":"layer1","children":[3]},{"translation":[0,0,0],"scale":[1,1,1],"rotation":[0,0,0,1],"name":"path3782","mesh":0}],"extensions":{"KHR_lights_punctual":{"lights":[{"name":"Point Light","type":"point","intensity":0.4,"range":10000,"color":[1,1,1]}]}},"materials":[{"pbrMetallicRoughness":{"baseColorFactor":[0.35865390592619895,0.3837746464879752,0.7372047873606051,1],"metallicFactor":0,"roughnessFactor":1},"name":"Spanish Style","emissiveFactor":[0,0,0],"alphaMode":"OPAQUE","doubleSided":true}],"meshes":[{"primitives":[{"mode":4,"attributes":{"POSITION":1,"NORMAL":2},"material":0,"indices":0}]}],"accessors":[{"bufferView":0,"byteOffset":0,"componentType":5125,"count":197298,"type":"SCALAR"},{"bufferView":1,"byteOffset":0,"componentType":5126,"count":103986,"max":[165.51998901367188,167.17625427246094,16.900001525878906],"min":[-167.84657287597656,-165.19876098632812,0.20000000298023224],"type":"VEC3"},{"bufferView":2,"byteOffset":0,"componentType":5126,"count":103986,"type":"VEC3"}],"bufferViews":[{"buffer":0,"byteOffset":0,"byteLength":789192,"target":34963},{"buffer":0,"byteOffset":789192,"byteLength":1247832,"target":34962},{"buffer":0,"byteOffset":2037024,"byteLength":1247832,"target":34962}],"scene":0,"scenes":[{"nodes":[0,1],"name":"Project Name"}],"extensionsUsed":["KHR_texture_transform","KHR_lights_punctual"],"extensionsRequired":["KHR_lights_punctual"],"buffers":[{"byteLength":3284856,"uri":"ProjectName.bin"}]}